{"title":"Junkyard.Dog.2010.720p.BRRip.H264.Feel-Free","uid":5961575,"size":1491012196,"categoryP":"video","categoryS":"hd___movies","magnet":"?xt=urn:btih:9a5fbbecda707af4b1df0b264799ed434f8e7586&amp;dn=Junkyard.Dog.2010.720p.BRRip.H264.Feel-Free&amp;tr=udp%3A%2F%2Ftracker.openbittorrent.com%3A80&amp;tr=udp%3A%2F%2Fopen.demonii.com%3A1337&amp;tr=udp%3A%2F%2Ftracker.coppersurfer.tk%3A6969&amp;tr=udp%3A%2F%2Fexodus.desync.com%3A6969","seeders":1,"leechers":1,"uploader":"hiest","files":-1,"time":1289975135,"description":"Genre:Thriller\nLanguage:English\nIMDb:http://www.imdb.com/title/tt1229405/\nSource:720p.BluRay.x264-MELiTE\n\nGeneral\nComplete name :Junkyard.Dog.2010.720p.BRRip.H264.Feel-Free\nFormat : MPEG-4\nFormat profile : Base Media\nCodec ID : mp42\nFile size : 1.38 GiB\nDuration : 1h 31mn\nOverall bit rate : 2 165 Kbps\nVideo #1\nCodec ID : avc1\nCodec ID/Info : Advanced Video Coding\nDuration : 1h 31mn\nBit rate mode : Variable\nBit rate : 1 588 Kbps\nWidth : 1 280 pixels\nHeight : 720 pixels\nDisplay aspect ratio : 16:9\nFrame rate mode : Constant\nFrame rate : 23.976 fps\nResolution : 24 bits\nColorimetry : 4:2:0\nScan type : Progressive\nBits/(Pixel*Frame) : 0.072\nStream size : 1.01 GiB (73%)\nAudio #2\nID : 2\nFormat : AAC\nFormat/Info : Advanced Audio Codec\nFormat version : Version 4\nFormat profile : LC\nFormat settings, SBR : No\nCodec ID : 40\nDuration : 1h 31mn\nBit rate mode : Constant\nBit rate : 576 Kbps\nChannel(s) : 6 channels\nChannel positions : Front: L C R, Rear: L R, LFE\nSampling rate : 48.0 KHz\nResolution : 16 bits\nStream size : 375 MiB (26%)\n\nPlot:\nA gritty psychological-horror-thriller that delves the demented mind of a cannibalistic serial rapist who kidnaps his tenth victim in as many months on Halloween night.\n\n\n\n\n\n\n\n\n\n\n\n\n================================== &lt;a href=&quot;\nhttp://thepiratebay.se/user/hiest&quot; rel=&quot;nofollow&quot; target=&quot;_NEW&quot;&gt;\nhttp://thepiratebay.se/user/hiest&lt;/a&gt;\n==================================\n\n\n\n\n\n\n\n\n\n\n\n\n\nScreenshots:\n &lt;a href=&quot;\nhttp://rapidhdd.com/images/419240vlcsnap-2010-11-17-06h57m39s197.png&quot; rel=&quot;nofollow&quot; target=&quot;_NEW&quot;&gt;\nhttp://rapidhdd.com/images/419240vlcsnap-2010-11-17-06h57m39s197.png&lt;/a&gt;\n &lt;a href=&quot;\nhttp://www.rapidhdd.com/images/538936vlcsnap-2010-11-17-07h02m29s4.png&quot; rel=&quot;nofollow&quot; target=&quot;_NEW&quot;&gt;\nhttp://www.rapidhdd.com/images/538936vlcsnap-2010-11-17-07h02m29s4.png&lt;/a&gt;\n &lt;a href=&quot;\nhttp://www.rapidhdd.com/images/953291vlcsnap-2010-11-17-06h59m00s235.png&quot; rel=&quot;nofollow&quot; target=&quot;_NEW&quot;&gt;\nhttp://www.rapidhdd.com/images/953291vlcsnap-2010-11-17-06h59m00s235.png&lt;/a&gt;","torrent":{"xt":"urn:btih:9a5fbbecda707af4b1df0b264799ed434f8e7586","amp;dn":"Junkyard.Dog.2010.720p.BRRip.H264.Feel-Free","amp;tr":["udp%3A%2F%2Ftracker.openbittorrent.com%3A80","udp%3A%2F%2Fopen.demonii.com%3A1337","udp%3A%2F%2Ftracker.coppersurfer.tk%3A6969","udp%3A%2F%2Fexodus.desync.com%3A6969"],"infoHash":"9a5fbbecda707af4b1df0b264799ed434f8e7586","infoHashBuffer":{"type":"Buffer","data":[154,95,187,236,218,112,122,244,177,223,11,38,71,153,237,67,79,142,117,134]},"announce":[],"urlList":[]}}